<svg width="20" height="20" viewBox="0 0 20 20" fill="none" xmlns="http://www.w3.org/2000/svg">
<path d="M15.6016 14.1491C15.39 14.1491 15.2179 13.9769 15.2179 13.7653V11.0517C15.2179 8.81012 13.7989 6.84359 11.7153 6.12119C11.6482 5.23266 10.9037 4.53027 9.99828 4.53027C9.09287 4.53027 8.34838 5.23262 8.28126 6.12119C6.19763 6.84359 4.7787 8.81012 4.7787 11.0517V13.7653C4.7787 13.9769 4.60655 14.1491 4.39493 14.1491C4.07111 14.1491 3.80859 14.4116 3.80859 14.7354C3.80859 15.0592 4.07111 15.3217 4.39493 15.3217H7.84609V15.4995C7.84609 16.6863 8.81155 17.6518 9.99832 17.6518C11.1851 17.6518 12.1506 16.6863 12.1506 15.4995V15.3217H15.6017C15.9255 15.3217 16.1881 15.0592 16.1881 14.7354C16.188 14.4116 15.9255 14.1491 15.6016 14.1491ZM10.9778 15.4996C10.9778 16.0397 10.5384 16.4791 9.99825 16.4791C9.45808 16.4791 9.01868 16.0397 9.01868 15.4996V15.3218H10.9778V15.4996H10.9778ZM5.90345 14.1491C5.93472 14.0263 5.95133 13.8977 5.95133 13.7653V11.0517C5.95133 9.19436 7.20741 7.58065 9.00593 7.12746C9.26642 7.06183 9.44901 6.82753 9.44901 6.55891V6.25222C9.44901 5.94936 9.69542 5.70298 9.99828 5.70298C10.3011 5.70298 10.5476 5.94936 10.5476 6.25222V6.55891C10.5476 6.82757 10.7301 7.06183 10.9906 7.12746C12.7892 7.58065 14.0452 9.19436 14.0452 11.0517V13.7653C14.0452 13.8977 14.0619 14.0263 14.0931 14.1491H5.90345Z" fill="white"/>
<path d="M19.4137 1.10033H17.613V0.595611C17.613 0.271799 17.3505 0.00927734 17.0267 0.00927734C16.7029 0.00927734 16.4403 0.271799 16.4403 0.595611V1.10033H15.2677V0.595611C15.2677 0.271799 15.0051 0.00927734 14.6813 0.00927734C14.3575 0.00927734 14.095 0.271799 14.095 0.595611V1.10033H12.9223V0.595611C12.9223 0.271799 12.6598 0.00927734 12.336 0.00927734C12.0122 0.00927734 11.7497 0.271799 11.7497 0.595611V1.10033H10.577V0.595611C10.577 0.271799 10.3145 0.00927734 9.99066 0.00927734C9.66685 0.00927734 9.40432 0.271799 9.40432 0.595611V1.10033H8.23166V0.595611C8.23166 0.271799 7.96914 0.00927734 7.64532 0.00927734C7.32151 0.00927734 7.05899 0.271799 7.05899 0.595611V1.10033H5.88632V0.595611C5.88632 0.271799 5.6238 0.00927734 5.29999 0.00927734C4.97618 0.00927734 4.71365 0.271799 4.71365 0.595611V1.10033H3.54099V0.595611C3.54099 0.271799 3.27847 0.00927734 2.95465 0.00927734C2.63084 0.00927734 2.36832 0.271799 2.36832 0.595611V1.10033H0.586334C0.262521 1.10033 0 1.36285 0 1.68666V19.4043C0 19.7281 0.262521 19.9906 0.586334 19.9906H19.4137C19.7375 19.9906 20 19.7281 20 19.4043V1.68666C20 1.36285 19.7375 1.10033 19.4137 1.10033ZM18.8273 18.8179H1.17267V2.27299H2.36832V2.77767C2.36832 3.10148 2.63084 3.36401 2.95465 3.36401C3.27847 3.36401 3.54099 3.10148 3.54099 2.77767V2.27299H4.71365V2.77767C4.71365 3.10148 4.97618 3.36401 5.29999 3.36401C5.6238 3.36401 5.88632 3.10148 5.88632 2.77767V2.27299H7.05899V2.77767C7.05899 3.10148 7.32151 3.36401 7.64532 3.36401C7.96914 3.36401 8.23166 3.10148 8.23166 2.77767V2.27299H9.40432V2.77767C9.40432 3.10148 9.66685 3.36401 9.99066 3.36401C10.3145 3.36401 10.577 3.10148 10.577 2.77767V2.27299H11.7497V2.77767C11.7497 3.10148 12.0122 3.36401 12.336 3.36401C12.6598 3.36401 12.9223 3.10148 12.9223 2.77767V2.27299H14.095V2.77767C14.095 3.10148 14.3575 3.36401 14.6813 3.36401C15.0051 3.36401 15.2677 3.10148 15.2677 2.77767V2.27299H16.4403V2.77767C16.4403 3.10148 16.7029 3.36401 17.0267 3.36401C17.3505 3.36401 17.613 3.10148 17.613 2.77767V2.27299H18.8273V18.8179Z" fill="white"/>
</svg>
