<svg width="21" height="25" viewBox="0 0 21 25" fill="none" xmlns="http://www.w3.org/2000/svg">
<path d="M19.3608 15.2755L17.5313 14.3608V10.1562C17.5306 8.99576 17.2427 7.85348 16.6931 6.83139C16.1434 5.80931 15.3493 4.93923 14.3815 4.29883C14.3963 4.16847 14.4046 4.03744 14.4063 3.90625C14.4063 2.87025 13.9947 1.87668 13.2621 1.14411C12.5296 0.41155 11.536 0 10.5 0C9.46401 0 8.47044 0.41155 7.73788 1.14411C7.00531 1.87668 6.59376 2.87025 6.59376 3.90625C6.59542 4.03744 6.60369 4.16847 6.61853 4.29883C5.65073 4.93923 4.85658 5.80931 4.30696 6.83139C3.75734 7.85348 3.46938 8.99576 3.46876 10.1562V14.3608L1.63923 15.2755C1.24902 15.4691 0.920828 15.7681 0.691861 16.1387C0.462894 16.5092 0.342306 16.9365 0.343763 17.3721V19.5312C0.344239 19.9455 0.509011 20.3427 0.801934 20.6356C1.09486 20.9285 1.49201 21.0933 1.90626 21.0937H5.88283C6.06595 22.1859 6.63032 23.1778 7.47566 23.8932C8.321 24.6086 9.39258 25.0012 10.5 25.0012C11.6074 25.0012 12.679 24.6086 13.5244 23.8932C14.3697 23.1778 14.9341 22.1859 15.1172 21.0937H19.0938C19.508 21.0933 19.9052 20.9285 20.1981 20.6356C20.491 20.3427 20.6558 19.9455 20.6563 19.5312V17.3721C20.6577 16.9365 20.5371 16.5092 20.3082 16.1387C20.0792 15.7681 19.751 15.4691 19.3608 15.2755ZM10.5 1.5625C11.0537 1.56384 11.589 1.76129 12.0109 2.11981C12.4328 2.47834 12.714 2.97474 12.8047 3.52094C11.3136 2.99308 9.68645 2.99308 8.19533 3.52094C8.28599 2.97474 8.56724 2.47834 8.98915 2.11981C9.41106 1.76129 9.94635 1.56384 10.5 1.5625ZM10.5 23.4375C9.80908 23.4354 9.13835 23.2042 8.59292 22.7801C8.04748 22.356 7.65816 21.7629 7.48595 21.0937H13.5141C13.3419 21.7629 12.9525 22.356 12.4071 22.7801C11.8617 23.2042 11.1909 23.4354 10.5 23.4375ZM19.0938 19.5312H1.90626V17.3721C1.90587 17.2269 1.9461 17.0846 2.02241 16.9611C2.09871 16.8376 2.20805 16.7379 2.33806 16.6733L4.59947 15.5426C4.72923 15.4777 4.83836 15.3779 4.91463 15.2545C4.99089 15.1311 5.03128 14.9888 5.03126 14.8437V10.1562C5.03126 8.70585 5.60743 7.31485 6.63302 6.28926C7.65861 5.26367 9.04961 4.6875 10.5 4.6875C11.9504 4.6875 13.3414 5.26367 14.367 6.28926C15.3926 7.31485 15.9688 8.70585 15.9688 10.1562V14.8437C15.9687 14.9888 16.0091 15.1311 16.0854 15.2545C16.1617 15.3779 16.2708 15.4777 16.4006 15.5426L18.662 16.6733C18.792 16.7379 18.9013 16.8376 18.9776 16.9611C19.0539 17.0846 19.0942 17.2269 19.0938 17.3721V19.5312Z" fill="white"/>
</svg>
