<svg width="178" height="43" viewBox="0 0 178 43" fill="none" xmlns="http://www.w3.org/2000/svg">
<g clip-path="url(#clip0_39_49351)">
<path d="M41.6133 10.1487V3.46875H48.6426V10.1487H54.1805V15.7948H48.6426V25.0157C48.6426 25.9648 48.8765 26.6683 49.3445 27.1262C49.8125 27.5871 50.4365 27.8145 51.2228 27.8145C51.8748 27.8145 52.4926 27.9237 54.4457 27.108C54.4457 27.108 54.4582 29.7521 56.7201 32.0748C56.0868 32.3932 53.9402 33.2634 53.0604 33.4271C52.1775 33.5909 51.2758 33.6758 50.3585 33.6758C48.446 33.6758 46.833 33.321 45.5195 32.6084C44.206 31.8959 43.2294 30.9074 42.5836 29.6338C41.9378 28.3603 41.6164 26.8806 41.6164 25.1856V15.7917" fill="white"/>
<path d="M78.0161 27.1689C78.0161 27.1689 78.2158 27.7178 79.6603 27.4813C79.6603 27.4813 79.5917 30.0283 81.4293 32.6876C80.5214 33.0909 80.406 33.1546 79.548 33.4093C78.69 33.664 77.3453 33.8156 75.8945 33.3062" fill="white"/>
<path d="M20.3525 32.1414C18.4462 31.1195 16.9393 29.6913 15.8254 27.8599C14.7147 26.0314 14.1562 23.9695 14.1562 21.6772C14.1562 19.3848 14.7116 17.3289 15.8254 15.5066C16.9361 13.6842 18.4462 12.2651 20.3525 11.2493C22.2588 10.2335 24.3523 9.72412 26.6361 9.72412C28.9199 9.72412 31.0758 10.2335 32.9759 11.2493C34.8728 12.2651 36.3704 13.6812 37.4686 15.4975C38.5668 17.3138 39.1159 19.3757 39.1159 21.6802C39.1159 23.9847 38.5668 26.0496 37.4686 27.872C36.3704 29.6944 34.8697 31.1195 32.9634 32.1414C31.0571 33.1663 28.948 33.6757 26.6361 33.6757C24.3242 33.6757 22.2588 33.1632 20.3525 32.1414ZM29.5938 27.0624C30.4674 26.5439 31.1569 25.8161 31.6623 24.8792C32.1678 23.9422 32.4174 22.8749 32.4174 21.6802C32.4174 20.4855 32.174 19.4636 31.6842 18.5358C31.1944 17.6079 30.5173 16.8802 29.65 16.3526C28.7826 15.828 27.7936 15.5642 26.6798 15.5642C25.5659 15.5642 24.5894 15.825 23.7002 16.3435C22.811 16.862 22.1122 17.5867 21.6098 18.5145C21.1044 19.4454 20.8548 20.5007 20.8548 21.6802C20.8548 22.8597 21.1075 23.9422 21.6098 24.8792C22.1153 25.8161 22.8079 26.5439 23.6908 27.0624C24.5738 27.5809 25.5566 27.8417 26.6392 27.8417C27.7218 27.8417 28.7233 27.5809 29.5969 27.0624H29.5938Z" fill="white"/>
<path d="M76.2213 33.4183C74.9858 33.1212 74.3306 32.8028 73.663 32.3267C72.9953 31.8507 72.5741 31.2351 72.2621 30.6711H72.1716C71.5351 31.5353 70.5368 32.2539 69.1796 32.821C67.8224 33.391 66.3279 33.6761 64.6962 33.6761C63.0644 33.6761 61.6979 33.3637 60.4593 32.7361C59.2207 32.1084 58.2566 31.2563 57.5671 30.1738C56.8776 29.0944 56.5312 27.8966 56.5312 26.5867C56.5312 25.1889 56.9244 23.9456 57.7106 22.8571C58.4968 21.7685 59.6294 20.9195 61.1145 20.307C62.5965 19.6945 64.3624 19.3882 66.409 19.3882H70.9236V18.2208C70.9236 17.299 70.5773 16.5743 69.8909 16.0497C69.2014 15.5252 68.2342 15.2614 66.9894 15.2614C65.9223 15.2614 64.7617 15.4312 63.5075 15.7708C62.2533 16.1104 61.2143 16.5319 60.3813 17.0352L58.0444 11.8895C59.0834 11.3134 60.4655 10.81 62.194 10.3764C63.9224 9.94283 65.7788 9.72754 67.7662 9.72754C70.5399 9.72754 72.649 10.1611 74.0935 11.0253C75.538 11.8895 76.4834 12.9265 76.9296 14.1394C77.3757 15.3523 77.5972 16.6835 77.5972 18.1389V25.1434C77.5972 25.9348 77.7002 26.5382 77.9092 26.9476C78.1183 27.3569 78.4739 27.6419 78.9762 27.8026L79.5098 27.9755M64.2001 27.9057C64.7867 28.3393 65.5448 28.5546 66.4808 28.5546C67.1329 28.5546 67.8286 28.4364 68.5712 28.1968C69.3137 27.9603 69.9471 27.5843 70.4744 27.0719C71.0016 26.5594 71.2637 25.9075 71.2637 25.1161V23.6667H67.2608C64.6369 23.6667 63.3234 24.4945 63.3234 26.1531C63.3234 26.8869 63.6167 27.4721 64.2032 27.9027L64.2001 27.9057Z" fill="white"/>
<path d="M84.6094 32.7693C83.6516 32.1931 82.934 31.4108 82.4504 30.4254C81.9699 29.4399 81.7266 28.3392 81.7266 27.1293V0H88.7558V26.0923C88.7558 26.6836 88.8775 27.1324 89.124 27.4447C89.3705 27.754 89.7729 27.9086 90.3376 27.9086C90.634 27.9086 90.9616 27.851 91.3173 27.7358V33.0968C90.8587 33.2696 90.3408 33.403 89.7729 33.497C89.202 33.591 88.6342 33.6365 88.0726 33.6365C86.7216 33.6365 85.5703 33.3484 84.6156 32.7723L84.6094 32.7693Z" fill="white"/>
<path d="M93.207 10.4219H100.236V33.6821H93.207V10.4219Z" fill="white"/>
<path d="M108.215 42.339C106.68 41.8993 105.454 41.3626 104.534 40.7289L105.601 38.2849C106.431 38.949 107.488 39.4917 108.771 39.9162C110.053 40.3407 111.36 40.553 112.695 40.553C114.118 40.553 115.447 40.2831 116.677 39.7434C117.906 39.2037 118.898 38.385 119.647 37.2903C120.396 36.1957 120.77 34.8464 120.77 33.2484V29.4642C119.837 30.8468 118.661 31.9112 117.244 32.6541C115.828 33.3969 114.274 33.7669 112.586 33.7669C110.63 33.7669 108.861 33.2878 107.282 32.3296C105.704 31.3714 104.453 30.0039 103.535 28.224C102.615 26.4441 102.156 24.373 102.156 22.0109C102.156 19.6488 102.615 17.593 103.535 15.8495C104.456 14.1059 105.71 12.7657 107.304 11.8287C108.898 10.8918 110.696 10.4248 112.699 10.4248C114.358 10.4248 115.878 10.7674 117.257 11.4527C118.636 12.138 119.784 13.1205 120.704 14.4031V10.7705H123.462V33.0998C123.462 35.3345 122.945 37.1963 121.906 38.6882C120.867 40.18 119.534 41.2716 117.903 41.963C116.271 42.6543 114.567 43 112.786 43C111.273 43 109.75 42.7787 108.215 42.342V42.339ZM117.014 30.0827C118.215 29.2822 119.151 28.1694 119.828 26.7442C120.502 25.3191 120.839 23.6969 120.839 21.8806C120.839 20.0643 120.505 18.5057 119.837 17.1563C119.169 15.81 118.237 14.767 117.035 14.0332C115.834 13.2994 114.461 12.9294 112.92 12.9294C111.379 12.9294 109.941 13.3085 108.739 14.0635C107.538 14.8185 106.612 15.8858 105.959 17.2625C105.307 18.6391 104.98 20.2189 104.98 22.0079C104.98 23.7969 105.32 25.4343 106.003 26.8382C106.686 28.2422 107.626 29.3338 108.827 30.113C110.028 30.8923 111.391 31.2805 112.92 31.2805C114.449 31.2805 115.812 30.8802 117.014 30.0797V30.0827Z" fill="white"/>
<path d="M130.538 32.2174C128.868 31.2441 127.577 29.8674 126.656 28.0875C125.736 26.3076 125.277 24.2518 125.277 21.9169C125.277 19.5821 125.73 17.5293 126.635 15.7555C127.539 13.9816 128.797 12.611 130.403 11.6377C132.013 10.6644 133.839 10.1792 135.885 10.1792C137.932 10.1792 139.685 10.6431 141.233 11.574C142.783 12.5019 143.975 13.7633 144.815 15.3552C145.651 16.9471 146.072 18.6937 146.072 20.5979C146.072 20.9861 146.053 21.4075 146.016 21.8624C145.978 22.3172 145.938 22.6598 145.894 22.8903H127.989C128.107 24.561 128.528 26.0226 129.255 27.2688C129.982 28.5151 130.946 29.4763 132.147 30.1555C133.349 30.8317 134.712 31.1713 136.241 31.1713C137.648 31.1713 138.94 30.9196 140.11 30.4132C141.28 29.9099 142.259 29.2974 143.046 28.5757L144.156 31.0834C143.164 31.8626 141.985 32.4873 140.621 32.9633C139.258 33.4394 137.804 33.6759 136.263 33.6759C134.113 33.6759 132.204 33.1908 130.534 32.2174H130.538ZM143.339 20.601C143.339 19.1303 143.036 17.7962 142.428 16.5924C141.819 15.3886 140.952 14.4395 139.826 13.739C138.699 13.0416 137.402 12.6899 135.932 12.6899C134.463 12.6899 133.268 13.0083 132.116 13.642C130.968 14.2757 130.032 15.1915 129.315 16.3862C128.594 17.5839 128.16 18.9878 128.014 20.601H143.339Z" fill="white"/>
<path d="M147.891 10.8768H150.649V14.1638H150.714C151.457 13.0267 152.48 12.1352 153.784 11.4954C155.088 10.8556 156.564 10.5342 158.211 10.5342C159.99 10.5342 161.497 10.9041 162.726 11.647C163.955 12.3899 164.876 13.3996 165.484 14.6732C166.092 15.9497 166.395 17.4022 166.395 19.0305V33.6852H163.637V19.6127C163.637 17.4658 163.11 15.8345 162.058 14.7156C161.004 13.5998 159.531 13.0418 157.631 13.0418C156.311 13.0418 155.123 13.3147 154.062 13.8636C153.001 14.4124 152.168 15.1796 151.56 16.165C150.951 17.1535 150.649 18.2785 150.649 19.549V33.6852H147.891V10.8768Z" fill="white"/>
<path d="M168.729 10.5705V2.98389H171.487V10.5705H177.537V13.0145H171.487V26.9779C171.487 28.303 171.79 29.337 172.398 30.0799C173.006 30.8228 173.867 31.1927 174.978 31.1927C175.615 31.1927 176.267 31.0411 176.934 30.7379L178.001 33.0939C177.053 33.482 176.045 33.6761 174.975 33.6761C172.928 33.6761 171.375 33.0939 170.314 31.9265C169.253 30.7591 168.723 29.1459 168.723 27.084V13.0115" fill="white"/>
<path d="M99.9274 1.33398H100.236V7.8654H93.207C93.207 4.26008 96.2178 1.33398 99.9274 1.33398Z" fill="white"/>
<path d="M6.7555 16.3921V25.2826C6.7555 26.1953 6.98014 26.8745 7.42941 27.3172C7.87869 27.7599 8.48084 27.9813 9.23587 27.9813C9.86298 27.9813 10.4558 28.0874 12.334 27.302C12.334 27.302 13.0173 29.3033 15.4789 32.0899C14.9735 32.4235 11.8473 33.2361 10.9986 33.3938C10.15 33.5515 9.28579 33.6333 8.40284 33.6333C6.56518 33.6333 5.01456 33.2907 3.7541 32.6054C2.49363 31.9201 1.55141 30.965 0.933654 29.74C0.315902 28.5149 0.00390625 27.0837 0.00390625 25.4493V16.3921H6.75862H6.7555Z" fill="white"/>
<path d="M6.6424 3.47461H0V9.83622H6.6424V3.47461Z" fill="white"/>
<path d="M6.7555 16.6949H0.00390625C0.00390625 16.6949 0.00390625 16.3856 0.00390625 16.3796C0.00390625 12.7652 3.01779 9.83301 6.7399 9.83301H6.7555V16.3917" fill="white"/>
<path d="M13.3829 9.81787H6.64062V16.3705H13.3829V9.81787Z" fill="white"/>
</g>
<defs>
<clipPath id="clip0_39_49351">
<rect width="178" height="43" fill="white"/>
</clipPath>
</defs>
</svg>
