<svg width="23" height="23" viewBox="0 0 23 23" fill="none" xmlns="http://www.w3.org/2000/svg">
<g clip-path="url(#clip0_39_49345)">
<path d="M12.2189 1.4375C6.27413 1.4375 1.43766 5.62889 1.43766 10.7812C1.44657 12.66 2.08492 14.4816 3.25071 15.955C2.33691 17.5076 1.30583 18.9882 0.166481 20.3838C0.079051 20.4887 0.0233456 20.6164 0.00589126 20.7519C-0.0115631 20.8874 0.00995657 21.0251 0.0679289 21.1488C0.125901 21.2725 0.217925 21.3771 0.333219 21.4504C0.448514 21.5236 0.582303 21.5625 0.718912 21.5625C3.43907 21.5136 6.10962 20.8259 8.51498 19.5547C9.7129 19.9343 10.9623 20.1267 12.2189 20.125C18.1637 20.125 23.0002 15.9336 23.0002 10.7812C23.0002 5.62889 18.1637 1.4375 12.2189 1.4375ZM12.2189 18.6875C11.0084 18.6894 9.80621 18.487 8.66304 18.0888C8.561 18.0533 8.45228 18.0412 8.34494 18.0534C8.23761 18.0657 8.13438 18.1018 8.0429 18.1593C6.27576 19.1765 4.31276 19.8069 2.28377 20.0089C3.19633 18.8058 4.01999 17.5378 4.74822 16.215C4.81613 16.0874 4.84398 15.9423 4.82813 15.7986C4.81228 15.6549 4.75347 15.5193 4.65939 15.4096C3.52474 14.1332 2.89089 12.489 2.87516 10.7812C2.87516 6.42174 7.06655 2.875 12.2189 2.875C17.3713 2.875 21.5627 6.42174 21.5627 10.7812C21.5627 15.1408 17.3713 18.6875 12.2189 18.6875Z" fill="white"/>
<path d="M12.2188 11.5C12.6157 11.5 12.9375 11.1782 12.9375 10.7812C12.9375 10.3843 12.6157 10.0625 12.2188 10.0625C11.8218 10.0625 11.5 10.3843 11.5 10.7812C11.5 11.1782 11.8218 11.5 12.2188 11.5Z" fill="white"/>
<path d="M16.5312 11.5C16.9282 11.5 17.25 11.1782 17.25 10.7812C17.25 10.3843 16.9282 10.0625 16.5312 10.0625C16.1343 10.0625 15.8125 10.3843 15.8125 10.7812C15.8125 11.1782 16.1343 11.5 16.5312 11.5Z" fill="white"/>
<path d="M7.90625 11.5C8.3032 11.5 8.625 11.1782 8.625 10.7812C8.625 10.3843 8.3032 10.0625 7.90625 10.0625C7.5093 10.0625 7.1875 10.3843 7.1875 10.7812C7.1875 11.1782 7.5093 11.5 7.90625 11.5Z" fill="white"/>
</g>
<defs>
<clipPath id="clip0_39_49345">
<rect width="23" height="23" fill="white"/>
</clipPath>
</defs>
</svg>
