<svg width="17" height="17" viewBox="0 0 17 17" fill="none" xmlns="http://www.w3.org/2000/svg">
<g clip-path="url(#clip0_39_49388)">
<path d="M16.3774 3.93874L13.0613 0.622572C12.662 0.225245 12.1221 0.00151739 11.5588 0L1.59375 0C1.1712 0.000464036 0.766097 0.168526 0.467311 0.467311C0.168526 0.766097 0.000464036 1.1712 0 1.59375V15.4062C0.000464036 15.8288 0.168526 16.2339 0.467311 16.5327C0.766097 16.8315 1.1712 16.9995 1.59375 17H15.4062C15.8288 16.9995 16.2339 16.8315 16.5327 16.5327C16.8315 16.2339 16.9995 15.8288 17 15.4062V5.44143C17.0007 5.16224 16.9461 4.88568 16.8392 4.62774C16.7323 4.36981 16.5754 4.13563 16.3774 3.93874ZM3.1875 3.71875V1.0625H7.96875V3.71875H3.1875ZM9.03125 1.0625H10.0938V3.71875H9.03125V1.0625ZM13.8125 15.9375H3.1875V9.03125H13.8125V15.9375ZM15.9375 15.4062C15.9374 15.5471 15.8814 15.6822 15.7818 15.7818C15.6822 15.8814 15.5471 15.9374 15.4062 15.9375H14.875V8.5C14.875 8.3591 14.819 8.22398 14.7194 8.12435C14.6198 8.02472 14.4846 7.96875 14.3438 7.96875H2.65625C2.51535 7.96875 2.38023 8.02472 2.2806 8.12435C2.18097 8.22398 2.125 8.3591 2.125 8.5V15.9375H1.59375C1.45289 15.9374 1.31784 15.8814 1.21824 15.7818C1.11864 15.6822 1.06263 15.5471 1.0625 15.4062V1.59375C1.06263 1.45289 1.11864 1.31784 1.21824 1.21824C1.31784 1.11864 1.45289 1.06263 1.59375 1.0625H2.125V4.25C2.125 4.3909 2.18097 4.52602 2.2806 4.62565C2.38023 4.72528 2.51535 4.78125 2.65625 4.78125H10.625C10.7659 4.78125 10.901 4.72528 11.0007 4.62565C11.1003 4.52602 11.1562 4.3909 11.1562 4.25V1.0625H11.5588C11.8405 1.06326 12.1104 1.17511 12.3101 1.37376L15.6262 4.68993C15.7252 4.78842 15.8036 4.90555 15.8571 5.03454C15.9105 5.16352 15.9378 5.30182 15.9375 5.44143V15.4062Z" fill="white"/>
<path d="M10.0938 5.84375H6.90625C6.76535 5.84375 6.63023 5.89972 6.5306 5.99935C6.43097 6.09898 6.375 6.2341 6.375 6.375C6.375 6.5159 6.43097 6.65102 6.5306 6.75065C6.63023 6.85028 6.76535 6.90625 6.90625 6.90625H10.0938C10.2346 6.90625 10.3698 6.85028 10.4694 6.75065C10.569 6.65102 10.625 6.5159 10.625 6.375C10.625 6.2341 10.569 6.09898 10.4694 5.99935C10.3698 5.89972 10.2346 5.84375 10.0938 5.84375Z" fill="white"/>
<path d="M4.78125 13.2812H12.2188C12.3596 13.2812 12.4948 13.2253 12.5944 13.1257C12.694 13.026 12.75 12.8909 12.75 12.75V10.625C12.75 10.4841 12.694 10.349 12.5944 10.2493C12.4948 10.1497 12.3596 10.0938 12.2188 10.0938H4.78125C4.64035 10.0938 4.50523 10.1497 4.4056 10.2493C4.30597 10.349 4.25 10.4841 4.25 10.625V12.75C4.25 12.8909 4.30597 13.026 4.4056 13.1257C4.50523 13.2253 4.64035 13.2812 4.78125 13.2812ZM5.3125 11.1562H11.6875V12.2188H5.3125V11.1562Z" fill="white"/>
</g>
<defs>
<clipPath id="clip0_39_49388">
<rect width="17" height="17" fill="white"/>
</clipPath>
</defs>
</svg>
