<svg width="19" height="19" viewBox="0 0 19 19" fill="none" xmlns="http://www.w3.org/2000/svg">
<g clip-path="url(#clip0_39_49382)">
<path d="M13.6562 0H5.34375C4.71408 0.000707188 4.1104 0.251157 3.66515 0.696402C3.21991 1.14165 2.96946 1.74533 2.96875 2.375V18.4062C2.96878 18.5181 3.00038 18.6276 3.05991 18.7223C3.11945 18.8169 3.20451 18.8928 3.30529 18.9413C3.40607 18.9897 3.51848 19.0087 3.62958 18.9961C3.74069 18.9834 3.84596 18.9397 3.9333 18.8698L9.5 14.4167L15.0664 18.8698C15.1537 18.9398 15.259 18.9836 15.3702 18.9963C15.4813 19.009 15.5938 18.99 15.6946 18.9415C15.7955 18.8931 15.8806 18.8171 15.9401 18.7224C15.9997 18.6277 16.0313 18.5181 16.0312 18.4062V2.375C16.0306 1.74531 15.7802 1.14161 15.3349 0.69635C14.8896 0.251095 14.2859 0.000660132 13.6562 0ZM14.8438 17.1709L9.8708 13.1928C9.76557 13.1085 9.6348 13.0626 9.5 13.0626C9.3652 13.0626 9.23443 13.1085 9.1292 13.1928L4.15625 17.1709V2.375C4.15656 2.06015 4.28178 1.75829 4.50441 1.53566C4.72704 1.31303 5.0289 1.18781 5.34375 1.1875H13.6562C13.9711 1.18786 14.2729 1.31309 14.4955 1.53571C14.7182 1.75833 14.8434 2.06017 14.8438 2.375V17.1709Z" fill="white"/>
</g>
<defs>
<clipPath id="clip0_39_49382">
<rect width="19" height="19" fill="white"/>
</clipPath>
</defs>
</svg>
