<svg width="18" height="18" viewBox="0 0 18 18" fill="none" xmlns="http://www.w3.org/2000/svg">
<g clip-path="url(#clip0_39_49385)">
<path d="M18 9C18 7.21997 17.4722 5.47991 16.4832 3.99987C15.4943 2.51983 14.0887 1.36628 12.4442 0.685088C10.7996 0.00389953 8.99002 -0.17433 7.24419 0.172937C5.49836 0.520203 3.89472 1.37737 2.63604 2.63604C1.37737 3.89472 0.520203 5.49836 0.172937 7.24419C-0.17433 8.99002 0.00389953 10.7996 0.685088 12.4442C1.36628 14.0887 2.51983 15.4943 3.99987 16.4832C5.47991 17.4722 7.21997 18 9 18C11.3851 17.9941 13.6709 17.0439 15.3574 15.3574C17.0439 13.6709 17.9941 11.3851 18 9ZM9.5625 16.8465V13.5154C10.3424 13.5417 11.1191 13.6301 11.885 13.7798C11.6866 14.7587 11.3756 15.7113 10.9581 16.6186C10.5008 16.7366 10.0336 16.8128 9.5625 16.8465ZM7.04189 16.6186C6.62439 15.7112 6.31337 14.7586 6.11505 13.7797C6.88095 13.6301 7.65756 13.5417 8.4375 13.5154V16.8465C7.96637 16.8128 7.49925 16.7365 7.04189 16.6186ZM1.15352 9.5625H4.51283C4.53373 10.693 4.63247 11.8206 4.80837 12.9375C4.09028 13.1375 3.39327 13.4067 2.72712 13.7413C1.80762 12.5309 1.26079 11.0788 1.15352 9.5625ZM2.72717 4.25864C3.39332 4.59317 4.0903 4.86238 4.80837 5.0625C4.63248 6.17938 4.53373 7.30705 4.51283 8.4375H1.15352C1.26081 6.92122 1.80766 5.46906 2.72717 4.25864ZM8.4375 1.15352V4.48459C7.65756 4.45835 6.88094 4.36994 6.11505 4.22022C6.31337 3.24135 6.62439 2.28875 7.04189 1.38145C7.49925 1.26347 7.96637 1.18718 8.4375 1.15352ZM10.9581 1.38145C11.3756 2.28875 11.6866 3.24135 11.885 4.22022C11.1191 4.36994 10.3425 4.45835 9.5625 4.48459V1.15352C10.0336 1.18718 10.5008 1.26347 10.9581 1.38145ZM16.8465 8.4375H13.4872C13.4663 7.30705 13.3675 6.17938 13.1916 5.0625C13.9097 4.86244 14.6067 4.59328 15.2729 4.2588C16.1924 5.46919 16.7392 6.92128 16.8465 8.4375ZM8.4375 8.4375H5.63789C5.65944 7.39514 5.75004 6.35535 5.90907 5.32497C6.74288 5.48745 7.58843 5.58252 8.4375 5.60925V8.4375ZM8.4375 9.5625V12.3907C7.58841 12.4175 6.74285 12.5125 5.90901 12.675C5.75 11.6446 5.65943 10.6048 5.63789 9.5625H8.4375ZM9.5625 9.5625H12.3621C12.3406 10.6048 12.25 11.6446 12.091 12.675C11.2572 12.5125 10.4116 12.4175 9.5625 12.3907V9.5625ZM9.5625 8.4375V5.60925C10.4116 5.58252 11.2571 5.48745 12.0909 5.32497C12.25 6.35535 12.3406 7.39514 12.3621 8.4375H9.5625ZM12.9825 3.95579C12.8333 3.25988 12.6372 2.57489 12.3954 1.90553C13.1777 2.27958 13.8932 2.77984 14.5131 3.38625C14.0183 3.61513 13.5066 3.80554 12.9825 3.95579ZM5.0175 3.95579C4.49345 3.80554 3.98174 3.61513 3.48694 3.38625C4.10679 2.77985 4.82221 2.27959 5.60453 1.90553C5.36275 2.5749 5.16662 3.25989 5.0175 3.95579ZM5.0175 14.0442C5.16671 14.7401 5.36289 15.4251 5.6047 16.0945C4.82229 15.7205 4.10679 15.2202 3.48689 14.6138C3.98171 14.3849 4.49343 14.1944 5.0175 14.0442ZM12.9828 14.0442C13.5068 14.1945 14.0184 14.3849 14.5131 14.6138C13.8933 15.2202 13.1778 15.7204 12.3955 16.0944C12.6372 15.425 12.8337 14.7401 12.9828 14.0442ZM13.1916 12.9375C13.3676 11.8206 13.4663 10.693 13.4872 9.5625H16.8465C16.7392 11.0788 16.1924 12.5309 15.2728 13.7413C14.6067 13.4068 13.9097 13.1376 13.1916 12.9375Z" fill="white"/>
</g>
<defs>
<clipPath id="clip0_39_49385">
<rect width="18" height="18" fill="white"/>
</clipPath>
</defs>
</svg>
