<svg width="23" height="21" viewBox="0 0 23 21" fill="none" xmlns="http://www.w3.org/2000/svg">
<path d="M12.2189 0.4375C6.27413 0.4375 1.43766 4.62889 1.43766 9.78125C1.44657 11.66 2.08492 13.4816 3.25071 14.955C2.33691 16.5076 1.30583 17.9882 0.166481 19.3838C0.079051 19.4887 0.0233456 19.6164 0.00589126 19.7519C-0.0115631 19.8874 0.00995657 20.0251 0.0679289 20.1488C0.125901 20.2725 0.217925 20.3771 0.333219 20.4504C0.448514 20.5236 0.582303 20.5625 0.718912 20.5625C3.43907 20.5136 6.10962 19.8259 8.51498 18.5547C9.7129 18.9343 10.9623 19.1267 12.2189 19.125C18.1637 19.125 23.0002 14.9336 23.0002 9.78125C23.0002 4.62889 18.1637 0.4375 12.2189 0.4375ZM12.2189 17.6875C11.0084 17.6894 9.80621 17.487 8.66304 17.0888C8.561 17.0533 8.45228 17.0412 8.34494 17.0534C8.23761 17.0657 8.13438 17.1018 8.0429 17.1593C6.27576 18.1765 4.31276 18.8069 2.28377 19.0089C3.19633 17.8058 4.01999 16.5378 4.74822 15.215C4.81613 15.0874 4.84398 14.9423 4.82813 14.7986C4.81228 14.6549 4.75347 14.5193 4.65939 14.4096C3.52474 13.1332 2.89089 11.489 2.87516 9.78125C2.87516 5.42174 7.06655 1.875 12.2189 1.875C17.3713 1.875 21.5627 5.42174 21.5627 9.78125C21.5627 14.1408 17.3713 17.6875 12.2189 17.6875Z" fill="white"/>
<path d="M12.2188 10.5C12.6157 10.5 12.9375 10.1782 12.9375 9.78125C12.9375 9.3843 12.6157 9.0625 12.2188 9.0625C11.8218 9.0625 11.5 9.3843 11.5 9.78125C11.5 10.1782 11.8218 10.5 12.2188 10.5Z" fill="white"/>
<path d="M16.5312 10.5C16.9282 10.5 17.25 10.1782 17.25 9.78125C17.25 9.3843 16.9282 9.0625 16.5312 9.0625C16.1343 9.0625 15.8125 9.3843 15.8125 9.78125C15.8125 10.1782 16.1343 10.5 16.5312 10.5Z" fill="white"/>
<path d="M7.90625 10.5C8.3032 10.5 8.625 10.1782 8.625 9.78125C8.625 9.3843 8.3032 9.0625 7.90625 9.0625C7.5093 9.0625 7.1875 9.3843 7.1875 9.78125C7.1875 10.1782 7.5093 10.5 7.90625 10.5Z" fill="white"/>
</svg>
