<svg width="20" height="20" viewBox="0 0 20 20" fill="none" xmlns="http://www.w3.org/2000/svg">
<g clip-path="url(#clip0_39_49377)">
<path d="M10 0C8.02219 0 6.08879 0.58649 4.4443 1.6853C2.79981 2.78412 1.51809 4.3459 0.761209 6.17317C0.00433281 8.00043 -0.193701 10.0111 0.192152 11.9509C0.578004 13.8907 1.53041 15.6725 2.92894 17.0711C4.32746 18.4696 6.10929 19.422 8.0491 19.8079C9.98891 20.1937 11.9996 19.9957 13.8268 19.2388C15.6541 18.4819 17.2159 17.2002 18.3147 15.5557C19.4135 13.9112 20 11.9778 20 10C19.997 7.34876 18.9424 4.80698 17.0677 2.93228C15.193 1.05757 12.6512 0.00302716 10 0ZM10 18.75C8.26942 18.75 6.57769 18.2368 5.13876 17.2754C3.69983 16.3139 2.57833 14.9473 1.91606 13.3485C1.25379 11.7496 1.08051 9.99029 1.41813 8.29296C1.75575 6.59563 2.58911 5.03652 3.81282 3.81282C5.03653 2.58911 6.59563 1.75575 8.29296 1.41813C9.9903 1.08051 11.7496 1.25379 13.3485 1.91605C14.9473 2.57832 16.3139 3.69983 17.2754 5.13876C18.2368 6.57769 18.75 8.26941 18.75 10C18.7474 12.3198 17.8247 14.5439 16.1843 16.1843C14.5439 17.8247 12.3198 18.7474 10 18.75Z" fill="white"/>
<path d="M10 2.5C8.51664 2.5 7.0666 2.93987 5.83323 3.76398C4.59986 4.58809 3.63856 5.75943 3.07091 7.12987C2.50325 8.50032 2.35472 10.0083 2.64411 11.4632C2.9335 12.918 3.64781 14.2544 4.6967 15.3033C5.7456 16.3522 7.08197 17.0665 8.53683 17.3559C9.99168 17.6453 11.4997 17.4968 12.8701 16.9291C14.2406 16.3614 15.4119 15.4001 16.236 14.1668C17.0601 12.9334 17.5 11.4834 17.5 10C17.4978 8.01156 16.7069 6.10519 15.3009 4.69915C13.8948 3.2931 11.9884 2.50222 10 2.5ZM10 16.25C8.76387 16.25 7.5555 15.8834 6.52769 15.1967C5.49988 14.5099 4.6988 13.5338 4.22576 12.3918C3.75271 11.2497 3.62894 9.99307 3.8701 8.78069C4.11125 7.5683 4.70651 6.45466 5.58059 5.58058C6.45466 4.7065 7.56831 4.11125 8.78069 3.87009C9.99307 3.62893 11.2497 3.75271 12.3918 4.22575C13.5338 4.6988 14.5099 5.49988 15.1967 6.52769C15.8834 7.55549 16.25 8.76387 16.25 10C16.2481 11.657 15.589 13.2456 14.4173 14.4173C13.2456 15.589 11.657 16.2481 10 16.25Z" fill="white"/>
<path d="M10.625 9.74119V5.625C10.625 5.45924 10.5592 5.30027 10.4419 5.18306C10.3247 5.06585 10.1658 5 10 5C9.83424 5 9.67527 5.06585 9.55806 5.18306C9.44085 5.30027 9.375 5.45924 9.375 5.625V10C9.37499 10.0821 9.39116 10.1633 9.42259 10.2392C9.45401 10.315 9.50007 10.3839 9.55813 10.4419L11.4331 12.3169C11.551 12.4307 11.7089 12.4937 11.8728 12.4923C12.0366 12.4909 12.1934 12.4251 12.3093 12.3093C12.4251 12.1934 12.4909 12.0366 12.4923 11.8728C12.4937 11.7089 12.4307 11.551 12.3169 11.4331L10.625 9.74119Z" fill="white"/>
</g>
<defs>
<clipPath id="clip0_39_49377">
<rect width="20" height="20" fill="white"/>
</clipPath>
</defs>
</svg>
