<svg width="25" height="25" viewBox="0 0 25 25" fill="none" xmlns="http://www.w3.org/2000/svg">
<g clip-path="url(#clip0_39_49393)">
<path d="M6.94532 20.6973V21.4845H20.2787V5.42433H19.1297V4.64307H20.6693H21.0599V5.03369V21.8751V22.2657H20.6693H6.5547H6.16406V21.8751V20.6973H6.94532Z" fill="white"/>
<path d="M17.9688 3.51564H4.68751V19.5313H17.9688V3.51564ZM4.29688 2.73438H18.3594H18.75V3.12501V19.9219V20.3125H18.3594H4.29688H3.90625V19.9219V3.12501V2.73438H4.29688Z" fill="white"/>
<path d="M7.03125 5.46875H15.625V6.25002H7.03125V5.46875Z" fill="white"/>
<path d="M7.03125 14.8438H15.625V15.625H7.03125V14.8438Z" fill="white"/>
<path d="M7.03125 17.1875H15.625V17.9688H7.03125V17.1875Z" fill="white"/>
<path d="M7.42188 8.98438C7.85331 8.98438 8.24394 9.15928 8.52672 9.44205C8.80948 9.72483 8.98439 10.1155 8.98439 10.5469C8.98439 10.9783 8.80948 11.3689 8.52672 11.6517C8.24394 11.9345 7.85331 12.1094 7.42188 12.1094C6.99046 12.1094 6.59983 11.9345 6.31705 11.6517C6.03428 11.3689 5.85938 10.9783 5.85938 10.5469C5.85938 10.1155 6.03428 9.72483 6.31705 9.44205C6.59983 9.15928 6.99046 8.98438 7.42188 8.98438ZM7.97434 9.99443C7.83299 9.85307 7.63765 9.76565 7.42188 9.76565C7.20612 9.76565 7.01078 9.85307 6.86942 9.99443C6.72807 10.1358 6.64064 10.3311 6.64064 10.5469C6.64064 10.7626 6.72807 10.958 6.86942 11.0993C7.01078 11.2407 7.20612 11.3281 7.42188 11.3281C7.63765 11.3281 7.83299 11.2407 7.97434 11.0993C8.11568 10.958 8.20312 10.7626 8.20312 10.5469C8.20312 10.3311 8.11568 10.1358 7.97434 9.99443Z" fill="white"/>
<path d="M11.3281 10.9375C11.7596 10.9375 12.1502 11.1124 12.433 11.3952C12.7157 11.678 12.8906 12.0686 12.8906 12.5C12.8906 12.9314 12.7157 13.3221 12.433 13.6048C12.1502 13.8876 11.7596 14.0625 11.3281 14.0625C10.8967 14.0625 10.5061 13.8876 10.2233 13.6048C9.94053 13.3221 9.76562 12.9314 9.76562 12.5C9.76562 12.0686 9.94053 11.678 10.2233 11.3952C10.5061 11.1124 10.8967 10.9375 11.3281 10.9375ZM11.8806 11.9476C11.7392 11.8062 11.5439 11.7188 11.3281 11.7188C11.1124 11.7188 10.917 11.8062 10.7757 11.9476C10.6343 12.0889 10.5469 12.2842 10.5469 12.5C10.5469 12.7158 10.6343 12.9111 10.7757 13.0525C10.917 13.1938 11.1124 13.2813 11.3281 13.2813C11.5439 13.2813 11.7392 13.1938 11.8806 13.0525C12.0219 12.9111 12.1094 12.7158 12.1094 12.5C12.1094 12.2842 12.0219 12.0889 11.8806 11.9476Z" fill="white"/>
<path d="M15.2344 7.8125C15.6658 7.8125 16.0564 7.9874 16.3392 8.27018C16.622 8.55295 16.7969 8.94359 16.7969 9.37501C16.7969 9.80643 16.622 10.1971 16.3392 10.4798C16.0564 10.7626 15.6658 10.9375 15.2344 10.9375C14.803 10.9375 14.4123 10.7626 14.1296 10.4798C13.8468 10.1971 13.6719 9.80643 13.6719 9.37501C13.6719 8.94359 13.8468 8.55295 14.1296 8.27018C14.4123 7.9874 14.803 7.8125 15.2344 7.8125ZM15.7868 8.82255C15.6455 8.6812 15.4501 8.59377 15.2344 8.59377C15.0186 8.59377 14.8233 8.6812 14.6819 8.82255C14.5406 8.9639 14.4531 9.15925 14.4531 9.37501C14.4531 9.59077 14.5406 9.78612 14.6819 9.92747C14.8233 10.0688 15.0186 10.1563 15.2344 10.1563C15.4501 10.1563 15.6455 10.0688 15.7868 9.92747C15.9282 9.78612 16.0156 9.59077 16.0156 9.37501C16.0156 9.15925 15.9282 8.9639 15.7868 8.82255Z" fill="white"/>
<path d="M8.4059 10.605L10.4084 11.83L10.0025 12.4953L8 11.2703L8.4059 10.605Z" fill="white"/>
<path d="M14.9193 10.2366L12.5577 12.1647L12.0664 11.5604L14.428 9.63232L14.9193 10.2366Z" fill="white"/>
</g>
<defs>
<clipPath id="clip0_39_49393">
<rect width="25" height="25" fill="white"/>
</clipPath>
</defs>
</svg>
