<svg width="24" height="24" viewBox="0 0 24 24" fill="none" xmlns="http://www.w3.org/2000/svg">
<path d="M23.6031 6.83848L12.3531 0.838481C12.2445 0.780392 12.1232 0.75 12 0.75C11.8769 0.75 11.7556 0.780392 11.647 0.838481L0.39701 6.83848C0.234068 6.9255 0.108936 7.06955 0.0455595 7.24306C-0.0178167 7.41656 -0.0149861 7.60735 0.0535099 7.77891L1.55351 11.5289C1.59277 11.627 1.65231 11.7157 1.72824 11.7892C1.80417 11.8627 1.89477 11.9193 1.9941 11.9553C2.09344 11.9913 2.19926 12.006 2.30464 11.9983C2.41003 11.9905 2.51259 11.9606 2.60561 11.9105L3.75003 11.2943V21.0002C3.75069 21.5967 3.98795 22.1687 4.40977 22.5905C4.83158 23.0123 5.4035 23.2496 6.00004 23.2502H18C18.5966 23.2496 19.1685 23.0123 19.5903 22.5905C20.0121 22.1687 20.2494 21.5967 20.25 21.0002V11.2943L21.3945 11.9105C21.4875 11.9606 21.59 11.9905 21.6954 11.9983C21.8008 12.006 21.9066 11.9913 22.006 11.9553C22.1053 11.9193 22.1959 11.8627 22.2718 11.7892C22.3478 11.7157 22.4073 11.627 22.4466 11.5289L23.9466 7.77891C24.0151 7.60735 24.0179 7.41656 23.9545 7.24306C23.8911 7.06955 23.766 6.9255 23.6031 6.83848ZM14.25 21.7502H9.75004V16.5002C9.75004 15.9035 9.98709 15.3312 10.409 14.9092C10.831 14.4873 11.4033 14.2502 12 14.2502C12.5968 14.2502 13.1691 14.4873 13.591 14.9092C14.013 15.3312 14.25 15.9035 14.25 16.5002V21.7502ZM18.75 21.0002C18.7498 21.199 18.6707 21.3897 18.5301 21.5303C18.3895 21.6708 18.1989 21.7499 18 21.7502H15.75V16.5002C15.75 15.5056 15.3549 14.5518 14.6517 13.8486C13.9484 13.1453 12.9946 12.7502 12 12.7502C11.0055 12.7502 10.0516 13.1453 9.34838 13.8486C8.64512 14.5518 8.25004 15.5056 8.25004 16.5002V21.7502H6.00004C5.8012 21.7499 5.61059 21.6708 5.46999 21.5303C5.32939 21.3897 5.25029 21.199 5.25003 21.0002V10.4866L12 6.85198L18.75 10.4866V21.0002ZM21.3659 10.1915L12.3556 5.34021C12.2463 5.28133 12.1242 5.25051 12 5.25051C11.8759 5.25051 11.7537 5.28133 11.6445 5.34021L2.63418 10.1915L1.69593 7.84521L12 2.35018L22.3041 7.84521L21.3659 10.1915Z" fill="#1B2F4E"/>
</svg>
